<svg width="44" height="44" viewBox="0 0 44 44" fill="none" xmlns="http://www.w3.org/2000/svg">
<path fill-rule="evenodd" clip-rule="evenodd" d="M22 44C9.84974 44 0 34.1503 0 22C0 9.84974 9.84974 0 22 0C34.1503 0 44 9.84974 44 22C44 34.1503 34.1503 44 22 44ZM36.799 32.2493C38.8172 29.3406 40 25.8084 40 22C40 12.0589 31.9411 4 22 4C12.0589 4 4 12.0589 4 22C4 25.8084 5.18277 29.3406 7.20101 32.2493C9.45191 29.2761 14.7412 28 22 28C29.2588 28 34.5481 29.2761 36.799 32.2493ZM33.9294 35.4795C33.344 33.3747 29.1388 32 22 32C14.8612 32 10.656 33.3747 10.0706 35.4795C13.2466 38.2924 17.4239 40 22 40C26.5761 40 30.7534 38.2924 33.9294 35.4795ZM22 10C17.1582 10 14 13.5115 14 18C14 24.8547 17.5217 28 22 28C26.4362 28 30 24.9592 30 18.4C30 13.8432 26.8284 10 22 10ZM18 18C18 22.5385 19.6364 24 22 24C24.3554 24 26 22.5968 26 18.4C26 15.9008 24.4313 14 22 14C19.4675 14 18 15.6316 18 18Z" fill="url(#paint0_linear_1577_5115)"/>
<defs>
<linearGradient id="paint0_linear_1577_5115" x1="22" y1="0" x2="22" y2="44" gradientUnits="userSpaceOnUse">
<stop/>
<stop offset="1" stop-color="#666666"/>
</linearGradient>
</defs>
</svg>
