<svg width="44" height="30" viewBox="0 0 44 30" fill="none" xmlns="http://www.w3.org/2000/svg">
<path fill-rule="evenodd" clip-rule="evenodd" d="M30.7639 4L34.4487 11.3695L40 15.0704V22H37.6586C36.8349 19.6696 34.6124 18 32 18C29.3876 18 27.1651 19.6696 26.3414 22H17.6586C16.8349 19.6696 14.6124 18 12 18C9.38756 18 7.16508 19.6696 6.34141 22H4V4H30.7639ZM40 26H37.6586C36.8349 28.3304 34.6124 30 32 30C29.3875 30 27.1651 28.3304 26.3414 26H17.6586C16.8349 28.3304 14.6124 30 12 30C9.38756 30 7.16508 28.3304 6.34141 26H4C1.79086 26 0 24.2091 0 22V4C0 1.79086 1.79086 0 4 0H30.7639C32.279 0 33.6641 0.856009 34.3416 2.21115L37.5513 8.63052L44 12.9296V22C44 24.2091 42.2091 26 40 26ZM14 24C14 25.1045 13.1046 26 12 26C10.8954 26 10 25.1045 10 24C10 22.8954 10.8954 22 12 22C13.1046 22 14 22.8954 14 24ZM34 24C34 25.1045 33.1046 26 32 26C30.8954 26 30 25.1045 30 24C30 22.8954 30.8954 22 32 22C33.1046 22 34 22.8954 34 24Z" fill="url(#paint0_linear_1577_1957)"/>
<defs>
<linearGradient id="paint0_linear_1577_1957" x1="22" y1="0" x2="22" y2="30" gradientUnits="userSpaceOnUse">
<stop/>
<stop offset="1" stop-color="#666666"/>
</linearGradient>
</defs>
</svg>
