<svg width="40" height="40" viewBox="0 0 40 40" fill="none" xmlns="http://www.w3.org/2000/svg">
<path fill-rule="evenodd" clip-rule="evenodd" d="M22.1924 32.5108L20 34.4252L17.8076 32.5108C9.97684 25.6732 6 19.6224 6 14C6 6.04283 12.207 0 20 0C27.793 0 34 6.04283 34 14C34 19.6224 30.0232 25.6732 22.1924 32.5108ZM7.3711 25.6066C8.19228 26.7309 9.10703 27.8744 10.115 29.0377C6.3905 29.8766 4 31.0671 4 31.9998C4 33.6137 11.1583 35.9998 20 35.9998C28.8417 35.9998 36 33.6137 36 31.9998C36 31.0671 33.6095 29.8766 29.885 29.0377C30.893 27.8744 31.8077 26.7309 32.6289 25.6066C37.1265 26.9714 40 29.1605 40 31.9998C40 37.0133 31.0405 39.9998 20 39.9998C8.95947 39.9998 0 37.0133 0 31.9998C0 29.1605 2.87348 26.9714 7.3711 25.6066ZM20 3.99997C25.6075 3.99997 30 8.27629 30 14C30 18.0939 26.7454 23.1318 20 29.112C13.2547 23.1318 10 18.0939 10 14C10 8.27629 14.3925 3.99997 20 3.99997ZM20 8.00003C23.3137 8.00003 26 10.6863 26 14C26 17.3137 23.3137 20 20 20C16.6863 20 14 17.3137 14 14C14 10.6863 16.6863 8.00003 20 8.00003ZM18 14C18 12.8954 18.8954 12 20 12C21.1046 12 22 12.8954 22 14C22 15.1046 21.1046 16 20 16C18.8954 16 18 15.1046 18 14Z" fill="url(#paint0_linear_1577_5124)"/>
<defs>
<linearGradient id="paint0_linear_1577_5124" x1="20" y1="0" x2="20" y2="39.9998" gradientUnits="userSpaceOnUse">
<stop/>
<stop offset="1" stop-color="#666666"/>
</linearGradient>
</defs>
</svg>
