<svg width="44" height="44" viewBox="0 0 44 44" fill="none" xmlns="http://www.w3.org/2000/svg">
<path fill-rule="evenodd" clip-rule="evenodd" d="M44 22C44 9.84974 34.1503 0 22 0C9.84974 0 0 9.84974 0 22C0 34.1503 9.84974 44 22 44C34.1503 44 44 34.1503 44 22ZM5.28464 15.309C7.11139 10.7496 10.7496 7.11139 15.309 5.28464C14.2393 7.34974 13.4001 9.92447 12.8345 12.8345C9.92447 13.4001 7.34974 14.2393 5.28464 15.309ZM28.691 5.28464C29.7607 7.34974 30.5999 9.92447 31.1655 12.8345C34.0755 13.4001 36.6503 14.2393 38.7154 15.309C36.8886 10.7496 33.2504 7.11139 28.691 5.28464ZM4 22C4 20.2015 7.25737 18.25 12.229 17.0764C12.0781 18.6616 12 20.31 12 22C12 23.69 12.0781 25.3384 12.229 26.9236C7.25737 25.75 4 23.7985 4 22ZM32 22C32 23.69 31.9219 25.3384 31.771 26.9236C36.7426 25.75 40 23.7985 40 22C40 20.2015 36.7426 18.25 31.771 17.0764C31.9219 18.6616 32 20.31 32 22ZM5.28464 28.691C7.34974 29.7607 9.92447 30.5999 12.8345 31.1655C13.4001 34.0755 14.2393 36.6503 15.309 38.7154C10.7496 36.8886 7.11139 33.2504 5.28464 28.691ZM31.1655 31.1655C30.5999 34.0755 29.7607 36.6503 28.691 38.7154C33.2504 36.8886 36.8886 33.2504 38.7154 28.691C36.6503 29.7607 34.0755 30.5999 31.1655 31.1655ZM16 22C16 20.0195 16.1242 18.1194 16.3452 16.3452C18.1194 16.1242 20.0195 16 22 16C23.9805 16 25.8806 16.1242 27.6548 16.3452C27.8758 18.1194 28 20.0195 28 22C28 23.9805 27.8758 25.8805 27.6548 27.6547C25.8806 27.8757 23.9805 27.9999 22 27.9999C20.0195 27.9999 18.1194 27.8757 16.3452 27.6547C16.1242 25.8805 16 23.9805 16 22ZM17.0764 31.771C18.25 36.7426 20.2015 40 22 40C23.7985 40 25.75 36.7426 26.9236 31.771C25.3384 31.9218 23.69 31.9999 22 31.9999C20.31 31.9999 18.6616 31.9218 17.0764 31.771ZM22 4C20.2015 4 18.25 7.25737 17.0764 12.229C18.6616 12.0781 20.31 12 22 12C23.69 12 25.3384 12.0781 26.9236 12.229C25.75 7.25737 23.7985 4 22 4Z" fill="url(#paint0_linear_1577_4968)"/>
<defs>
<linearGradient id="paint0_linear_1577_4968" x1="22" y1="0" x2="22" y2="44" gradientUnits="userSpaceOnUse">
<stop/>
<stop offset="1" stop-color="#666666"/>
</linearGradient>
</defs>
</svg>
