<svg width="92" height="72" viewBox="0 0 92 72" fill="none" xmlns="http://www.w3.org/2000/svg">
<path d="M0.0234375 22.274C9.03918 22.274 18.0788 22.298 27.0946 22.298C27.2142 22.298 27.3337 22.274 27.5729 22.2262C27.5729 21.2935 27.6685 20.337 27.549 19.4043C27.1663 15.8889 28.0273 12.7322 29.8208 9.69504C31.2318 7.3036 32.3558 4.76867 33.5754 2.25765C34.0298 1.30108 34.6516 0.894531 35.7277 0.894531C51.7265 0.918446 67.7013 0.918446 83.7001 0.894531C84.7284 0.894531 85.3502 1.27716 85.8045 2.20983C87.646 5.98831 89.583 9.74287 91.4244 13.5214C91.6875 14.0475 91.831 14.6692 91.831 15.2432C91.8549 33.2268 91.8549 51.2344 91.8549 69.2181C91.8549 70.8203 91.3527 71.2986 89.7743 71.2986C69.758 71.2986 49.7177 71.2986 29.7013 71.2986C28.0512 71.2986 27.5968 70.8443 27.5968 69.1463C27.5968 56.9739 27.5968 44.8254 27.5968 32.6529C27.5968 31.505 27.5968 31.505 26.425 31.505C20.0637 31.505 13.7025 31.505 7.31734 31.505C6.95863 31.505 6.59991 31.505 6.19336 31.505C6.19336 30.4767 6.19336 29.544 6.19336 28.4679C13.272 28.4679 20.3746 28.4679 27.5251 28.4679C27.5251 27.4156 27.5251 26.4591 27.5251 25.3829C27.1663 25.3829 26.8076 25.3829 26.4728 25.3829C18.0071 25.3829 9.5653 25.3829 1.09959 25.3829C0.740871 25.3829 0.382154 25.359 0.0234375 25.359C0.0234375 24.3068 0.0234375 23.2784 0.0234375 22.274ZM30.7057 22.298C33.7428 22.298 36.756 22.298 39.7692 22.298C39.7692 23.3741 39.7692 24.3307 39.7692 25.3829C36.7321 25.3829 33.7428 25.3829 30.7296 25.3829C30.7296 26.4351 30.7296 27.3917 30.7296 28.4679C33.7906 28.4679 36.8038 28.4679 39.7932 28.4679C39.7932 29.5201 39.7932 30.4767 39.7932 31.5289C36.7321 31.5289 33.7428 31.5289 30.7535 31.5289C30.7535 43.8209 30.7535 55.9934 30.7535 68.1419C50.1481 68.1419 69.471 68.1419 88.7939 68.1419C88.7939 50.804 88.7939 33.5377 88.7939 16.2476C81.6673 16.2476 74.5648 16.2476 67.4143 16.2476C67.4143 16.6781 67.4143 17.0129 67.4143 17.3716C67.4143 23.3741 67.4143 29.3766 67.4143 35.4031C67.4143 37.1727 66.96 37.6271 65.1664 37.6271C61.5553 37.6271 57.9442 37.6271 54.3092 37.6271C52.5635 37.6271 52.0852 37.1488 52.0852 35.3791C52.0852 29.3527 52.0852 23.3024 52.0852 17.2759C52.0852 16.9411 52.0852 16.5824 52.0852 16.2715C44.863 16.2715 37.8083 16.2715 30.7296 16.2715C30.7057 18.2803 30.7057 20.2413 30.7057 22.298ZM53.3766 4.05124C53.1613 4.00341 53.0418 3.97949 52.9461 3.97949C47.5414 3.97949 42.1368 3.95558 36.7321 4.00341C36.4451 4.00341 36.0625 4.3143 35.919 4.57735C34.8668 6.61008 33.8385 8.66672 32.8101 10.7234C32.4275 11.4886 32.0449 12.2539 31.6383 13.067C38.5735 13.067 45.3891 13.067 52.2765 13.067C52.6352 10.0298 52.9939 7.04054 53.3766 4.05124ZM67.1752 13.067C74.0865 13.067 80.8782 13.067 87.7655 13.067C87.622 12.7561 87.5264 12.5169 87.4068 12.2778C86.1394 9.74287 84.848 7.20794 83.6283 4.6491C83.3414 4.05124 82.9826 3.93166 82.3848 3.93166C77.2432 3.95558 72.1016 3.93166 66.96 3.93166C66.673 3.93166 66.386 3.93166 66.0273 3.93166C66.4339 7.04054 66.7926 10.0298 67.1752 13.067ZM64.2337 16.2237C61.1966 16.2237 58.2073 16.2237 55.1462 16.2237C55.1462 22.3219 55.1462 28.3722 55.1462 34.4704C58.1834 34.4704 61.1727 34.4704 64.2337 34.4704C64.2337 28.3722 64.2337 22.3219 64.2337 16.2237ZM56.4615 3.97949C56.0789 7.04054 55.7202 10.0538 55.3375 13.067C58.3029 13.067 61.1727 13.067 64.0902 13.067C63.7076 10.0059 63.325 6.99271 62.9423 3.97949C60.7661 3.97949 58.6856 3.97949 56.4615 3.97949Z" fill="#0B2B37"/>
<path d="M0.0239145 48.2686C3.46759 48.2686 6.88736 48.2925 10.331 48.2925C14.6835 48.2925 19.0598 48.2925 23.4122 48.2925C23.747 48.2925 24.0579 48.2925 24.4406 48.2925C24.4406 49.3208 24.4406 50.2535 24.4406 51.2818C24.2253 51.3057 23.9862 51.3535 23.771 51.3535C15.9988 51.3535 8.22657 51.3535 0.454374 51.3535C0.310888 51.3535 0.167401 51.3296 0 51.3057C0.0239144 50.3013 0.0239145 49.2969 0.0239145 48.2686Z" fill="#30D5C8"/>
<path d="M24.4645 54.4863C24.4645 55.4907 24.4645 56.4234 24.4645 57.4278C18.3663 57.4278 12.3159 57.4278 6.21777 57.4278C6.21777 56.4712 6.21777 55.4907 6.21777 54.4863C12.2681 54.4863 18.3185 54.4863 24.4645 54.4863Z" fill="#30D5C8"/>
<path d="M39.8417 65.1524C38.4068 65.1524 36.9719 65.1524 35.5371 65.1524C34.2696 65.1524 33.7196 64.6024 33.6957 63.3827C33.6718 60.9913 33.6718 58.5998 33.6957 56.2323C33.6957 55.0844 34.2457 54.4866 35.3936 54.4866C38.3351 54.4387 41.3005 54.4387 44.2658 54.4866C45.3898 54.5105 45.9159 55.1322 45.9398 56.2801C45.9638 58.6716 45.9638 61.063 45.9398 63.4306C45.9398 64.6024 45.342 65.1524 44.1463 65.1763C42.7114 65.1524 41.2765 65.1524 39.8417 65.1524ZM36.8285 57.5476C36.8285 59.102 36.8285 60.5608 36.8285 62.0196C38.8851 62.0196 40.8461 62.0196 42.831 62.0196C42.831 60.4891 42.831 59.0542 42.831 57.5476C40.8222 57.5476 38.8612 57.5476 36.8285 57.5476Z" fill="#30D5C8"/>
<path d="M85.6852 65.1041C81.6436 65.1041 77.6499 65.1041 73.5605 65.1041C73.5605 64.1236 73.5605 63.167 73.5605 62.1387C77.6021 62.1387 81.6197 62.1387 85.6852 62.1387C85.6852 63.1192 85.6852 64.0757 85.6852 65.1041Z" fill="#30D5C8"/>
<path d="M79.6587 58.9825C79.6587 57.9781 79.6587 57.0454 79.6587 56.041C81.6675 56.041 83.6285 56.041 85.6851 56.041C85.6851 57.0215 85.6851 57.9781 85.6851 58.9825C83.6763 58.9825 81.6914 58.9825 79.6587 58.9825Z" fill="#30D5C8"/>
<path d="M73.5371 58.982C73.5371 58.0015 73.5371 57.0689 73.5371 56.0645C74.4937 56.0645 75.4503 56.0645 76.4786 56.0645C76.4786 57.021 76.4786 57.9776 76.4786 58.982C75.522 58.982 74.5654 58.982 73.5371 58.982Z" fill="#30D5C8"/>
</svg>
