<svg width="676" height="582" viewBox="0 0 676 582" fill="none" xmlns="http://www.w3.org/2000/svg">
<path d="M19.5269 519.4C12.5862 514.773 -27.9016 492.794 33.4084 436.111C28.7813 426.856 28.7812 412.975 54.2307 395.623C79.6801 378.271 122.481 353.979 136.363 338.94C127.109 352.822 106.286 371.33 79.6801 388.682C53.0739 406.034 47.2899 416.445 56.5443 425.7C65.7986 419.916 76.2098 408.348 76.2098 408.348C66.9554 422.229 51.9171 438.424 28.7813 460.404C6.8022 482.383 -0.138569 504.362 19.5269 519.4ZM144.461 425.7C147.931 432.641 142.147 443.052 116.698 452.306C149.088 452.306 189.575 422.229 194.203 408.348C165.283 417.602 186.105 402.564 215.025 386.369C290.216 345.881 323.763 303.08 330.704 277.63C290.216 353.979 197.673 382.898 161.812 393.31C106.286 409.505 76.2098 445.365 68.1122 458.09C105.13 423.386 139.833 415.289 144.461 425.7ZM36.8788 530.968C36.8788 517.086 48.4467 495.107 107.443 490.48C166.44 485.853 196.516 485.853 211.555 480.069C184.948 483.539 172.224 475.442 175.694 466.188C179.164 456.933 211.554 436.111 198.83 412.975C197.673 425.7 191.889 443.052 142.147 465.031C119.011 475.442 94.7184 477.755 75.053 485.853C49.6035 495.107 31.0948 511.302 36.8788 530.968ZM315.666 426.857C301.784 432.641 277.492 446.522 269.394 426.857C260.14 407.191 294.844 390.996 299.471 401.407C304.098 411.818 293.687 422.229 290.216 422.229C300.628 421.073 323.763 399.094 330.704 356.292C337.645 313.491 374.662 209.379 478.774 172.362C418.62 189.714 373.505 229.045 313.352 323.902C289.06 360.919 211.554 456.933 184.948 467.344C213.868 474.285 279.805 470.815 315.666 426.857ZM328.391 415.289C321.45 429.17 290.216 463.874 268.237 487.01C246.258 510.146 235.847 539.065 243.945 557.574C252.042 576.083 277.492 581.867 277.492 581.867C264.767 571.456 263.61 551.79 289.06 530.968C314.509 508.989 322.607 485.853 321.45 473.128C317.979 482.383 301.784 497.421 292.53 506.675C283.276 514.773 274.021 520.557 269.394 529.811C271.708 515.93 284.432 498.578 296 485.853C307.568 471.971 331.861 445.365 328.391 415.289ZM337.645 401.407C350.37 393.31 408.209 355.135 403.582 299.609C396.641 312.334 381.603 323.902 378.133 315.804C374.662 307.707 401.269 260.278 434.815 240.613C405.896 253.338 357.31 294.982 348.056 355.135C353.84 338.94 374.662 327.372 376.976 334.313C379.289 341.254 374.662 366.703 337.645 401.407ZM120.168 370.174C135.206 374.801 198.83 375.958 252.042 342.411C241.631 345.881 226.593 347.038 223.122 337.783C219.652 328.529 237.004 311.177 252.042 299.609C268.237 288.041 324.92 240.613 313.352 215.163C309.882 207.066 294.844 209.379 294.844 209.379C306.411 197.812 405.896 108.739 496.125 67.094C446.383 82.1323 289.06 183.93 243.945 226.731C257.826 220.947 269.394 218.634 270.551 223.261C272.865 227.888 274.021 242.926 247.415 273.003C220.809 305.393 183.791 338.94 120.168 370.174ZM142.147 349.351C161.812 341.254 264.767 257.965 253.199 233.672C250.885 227.888 194.203 256.808 187.262 232.515C184.948 226.731 187.262 216.32 227.75 186.244C297.157 134.188 452.167 48.5853 675.428 0C611.805 3.47038 459.108 42.8013 291.373 115.679C123.638 188.557 91.2481 245.24 99.3456 261.435C106.286 277.63 180.321 249.867 190.732 274.16C199.987 297.296 160.656 334.313 142.147 349.351ZM258.983 312.334C285.589 300.766 326.077 267.219 357.31 214.007C387.387 160.794 516.948 63.6236 637.254 20.8223C594.453 32.3902 445.227 98.3274 322.607 200.125C335.331 207.066 345.742 245.24 258.983 312.334ZM350.37 316.961C364.251 292.669 394.328 244.083 457.951 216.32C490.342 202.439 513.477 200.125 496.125 226.731C518.105 205.909 567.847 152.697 637.254 145.756C562.063 129.561 402.425 188.557 350.37 316.961ZM234.69 207.066C216.182 219.791 198.83 231.359 194.203 231.359C201.143 239.456 217.338 238.299 225.436 230.202C324.92 146.913 459.108 74.0347 511.164 55.526C449.854 75.1915 337.645 133.031 234.69 207.066Z" fill="white"/>
</svg>
