<svg width="90" height="102" viewBox="0 0 90 102" fill="none" xmlns="http://www.w3.org/2000/svg">
<g filter="url(#filter0_d_975_4301)">
<path fill-rule="evenodd" clip-rule="evenodd" d="M69.2603 34.6893C69.2603 20.5579 58.4415 10 44.6301 10C30.8188 10 20 20.5579 20 34.6893C20 44.797 28.0163 57.2351 44.6301 72C61.244 57.2351 69.2603 44.797 69.2603 34.6893Z" fill="#30D5C8"/>
<path fill-rule="evenodd" clip-rule="evenodd" d="M46.4919 43.5573L44.6299 45.1832L42.7678 43.5573C36.117 37.75 32.7394 32.6109 32.7394 27.8357C32.7394 21.0776 38.0111 15.9453 44.6299 15.9453C51.2486 15.9453 56.5203 21.0776 56.5203 27.8357C56.5203 32.6109 53.1427 37.75 46.4919 43.5573ZM33.9039 37.6935C34.6014 38.6483 35.3783 39.6196 36.2343 40.6076C33.0711 41.32 31.0408 42.3312 31.0408 43.1233C31.0408 44.494 37.1205 46.5205 44.6299 46.5205C52.1393 46.5205 58.2189 44.494 58.2189 43.1233C58.2189 42.3312 56.1886 41.32 53.0254 40.6076C53.8814 39.6196 54.6583 38.6483 55.3558 37.6935C59.1757 38.8526 61.6162 40.7119 61.6162 43.1233C61.6162 47.3813 54.0068 49.9178 44.6299 49.9178C35.253 49.9178 27.6436 47.3813 27.6436 43.1233C27.6436 40.7119 30.084 38.8526 33.9039 37.6935ZM44.6299 19.3426C49.3924 19.3426 53.123 22.9745 53.123 27.8357C53.123 31.3128 50.3588 35.5915 44.6299 40.6706C38.9009 35.5915 36.1367 31.3128 36.1367 27.8357C36.1367 22.9745 39.8673 19.3426 44.6299 19.3426ZM44.6299 22.7398C47.4442 22.7398 49.7257 25.0213 49.7257 27.8357C49.7257 30.6501 47.4442 32.9316 44.6299 32.9316C41.8155 32.9316 39.534 30.6501 39.534 27.8357C39.534 25.0213 41.8155 22.7398 44.6299 22.7398ZM42.9312 27.8357C42.9312 26.8976 43.6917 26.1371 44.6299 26.1371C45.568 26.1371 46.3285 26.8976 46.3285 27.8357C46.3285 28.7739 45.568 29.5344 44.6299 29.5344C43.6917 29.5344 42.9312 28.7739 42.9312 27.8357Z" fill="black"/>
</g>
<defs>
<filter id="filter0_d_975_4301" x="0" y="0" width="89.2607" height="102" filterUnits="userSpaceOnUse" color-interpolation-filters="sRGB">
<feFlood flood-opacity="0" result="BackgroundImageFix"/>
<feColorMatrix in="SourceAlpha" type="matrix" values="0 0 0 0 0 0 0 0 0 0 0 0 0 0 0 0 0 0 127 0" result="hardAlpha"/>
<feOffset dy="10"/>
<feGaussianBlur stdDeviation="10"/>
<feComposite in2="hardAlpha" operator="out"/>
<feColorMatrix type="matrix" values="0 0 0 0 0 0 0 0 0 0 0 0 0 0 0 0 0 0 0.2 0"/>
<feBlend mode="normal" in2="BackgroundImageFix" result="effect1_dropShadow_975_4301"/>
<feBlend mode="normal" in="SourceGraphic" in2="effect1_dropShadow_975_4301" result="shape"/>
</filter>
</defs>
</svg>
