<svg width="339" height="56" viewBox="0 0 339 56" fill="none" xmlns="http://www.w3.org/2000/svg">
<path d="M1.87931 49.9881C1.21132 49.5427 -2.6853 47.4274 3.21529 41.9722C2.76996 41.0815 2.76996 39.7455 5.21927 38.0755C7.66857 36.4056 11.7879 34.0676 13.1238 32.6203C12.2332 33.9563 10.2292 35.7376 7.66857 37.4076C5.10794 39.0775 4.55128 40.0795 5.44193 40.9702C6.33259 40.4135 7.33458 39.3002 7.33458 39.3002C6.44392 40.6362 4.9966 42.1948 2.76996 44.3101C0.654657 46.4254 -0.0133362 48.5408 1.87931 49.9881ZM13.9032 40.9702C14.2372 41.6382 13.6805 42.6402 11.2312 43.5308C14.3485 43.5308 18.2451 40.6362 18.6904 39.3002C15.9071 40.1909 17.9111 38.7435 20.6944 37.1849C27.931 33.2883 31.1596 29.169 31.8276 26.7197C27.931 34.0676 19.0244 36.8509 15.5731 37.8529C10.2292 39.4115 7.33458 42.8628 6.55525 44.0875C10.1179 40.7475 13.4578 39.9682 13.9032 40.9702ZM3.54929 51.1014C3.54929 49.7654 4.66261 47.6501 10.3405 47.2048C16.0185 46.7594 18.9131 46.7594 20.3604 46.2028C17.7998 46.5368 16.5751 45.7575 16.9091 44.8668C17.2431 43.9761 20.3604 41.9722 19.1358 39.7455C19.0244 40.9702 18.4678 42.6402 13.6805 44.7555C11.4539 45.7575 9.11589 45.9801 7.22325 46.7594C4.77394 47.6501 2.99263 49.2087 3.54929 51.1014ZM30.3803 41.0815C29.0443 41.6382 26.7063 42.9742 25.927 41.0815C25.0364 39.1889 28.3763 37.6302 28.8217 38.6322C29.267 39.6342 28.265 40.6362 27.931 40.6362C28.933 40.5248 31.1596 38.4095 31.8276 34.2903C32.4956 30.171 36.0582 20.1511 46.0781 16.5885C40.2888 18.2584 35.9469 22.0437 30.1576 31.173C27.8197 34.7356 20.3604 43.9761 17.7998 44.9781C20.5831 45.6461 26.929 45.3121 30.3803 41.0815ZM31.605 39.9682C30.937 41.3042 27.931 44.6441 25.8157 46.8708C23.7004 49.0974 22.6984 51.8807 23.4777 53.662C24.257 55.4433 26.7063 56 26.7063 56C25.4817 54.998 25.3704 53.1054 27.8197 51.1014C30.269 48.9861 31.0483 46.7594 30.937 45.5348C30.603 46.4254 29.0443 47.8728 28.1537 48.7634C27.263 49.5427 26.3723 50.0994 25.927 50.9901C26.1497 49.6541 27.3743 47.9841 28.4877 46.7594C29.601 45.4235 31.9389 42.8628 31.605 39.9682ZM32.4956 38.6322C33.7203 37.8529 39.2869 34.1789 38.8415 28.835C38.1735 30.0596 36.7262 31.173 36.3922 30.3936C36.0582 29.6143 38.6189 25.0497 41.8475 23.1571C39.0642 24.3817 34.3883 28.3897 33.4976 34.1789C34.0543 32.6203 36.0582 31.507 36.2809 32.1749C36.5036 32.8429 36.0582 35.2922 32.4956 38.6322ZM11.5652 35.6262C13.0125 36.0716 19.1358 36.1829 24.257 32.9543C23.2551 33.2883 21.8077 33.3996 21.4737 32.5089C21.1397 31.6183 22.8097 29.9483 24.257 28.835C25.8157 27.7217 31.271 23.1571 30.1576 20.7078C29.8236 19.9284 28.3763 20.1511 28.3763 20.1511C29.4896 19.0378 39.0642 10.4652 47.7481 6.45725C42.9608 7.90457 27.8197 17.7018 23.4777 21.8211C24.8137 21.2644 25.927 21.0417 26.0384 21.4871C26.261 21.9324 26.3723 23.3797 23.8117 26.2744C21.2511 29.3916 17.6885 32.6203 11.5652 35.6262ZM13.6805 33.6223C15.5731 32.8429 25.4817 24.827 24.3684 22.4891C24.1457 21.9324 18.6904 24.7157 18.0224 22.3777C17.7998 21.8211 18.0224 20.8191 21.9191 17.9245C28.599 12.9145 43.5175 4.67594 65.0046 0C58.8813 0.333996 44.1855 4.11928 28.0423 11.1332C11.8992 18.1471 8.78189 23.6024 9.56122 25.161C10.2292 26.7197 17.3545 24.0477 18.3564 26.3857C19.2471 28.6123 15.4618 32.1749 13.6805 33.6223ZM24.925 30.0596C27.4857 28.9463 31.3823 25.7177 34.3883 20.5964C37.2829 15.4751 49.7521 6.12326 61.3306 2.00398C57.2113 3.1173 42.8495 9.46322 31.0483 19.2604C32.2729 19.9284 33.2749 23.6024 24.925 30.0596ZM33.7203 30.505C35.0562 28.167 37.9509 23.4911 44.0741 20.8191C47.1914 19.4831 49.4181 19.2604 47.7481 21.8211C49.8634 19.8171 54.6507 14.6958 61.3306 14.0278C54.094 12.4692 38.7302 18.1471 33.7203 30.505ZM22.5871 19.9284C20.8057 21.1531 19.1358 22.2664 18.6904 22.2664C19.3584 23.0457 20.9171 22.9344 21.6964 22.1551C31.271 14.1392 44.1855 7.12525 49.1954 5.34394C43.2948 7.23658 32.4956 12.8032 22.5871 19.9284Z" fill="#30D5C8"/>
<path d="M83.0405 12.8034C80.3685 12.8034 78.5872 13.8054 77.4739 15.8093C76.6946 17.2567 76.3606 19.4833 76.3606 22.4893C76.3606 25.2726 76.8059 27.2765 77.5852 28.5012C78.5872 29.9485 80.3685 30.7278 83.0405 30.7278H92.3924V35.4038H82.7065C80.8139 35.4038 79.3665 35.2924 78.2532 35.0698C76.8059 34.7358 75.4699 34.0678 74.2453 33.0658C71.462 30.8392 70.126 27.2765 70.126 22.3779C70.126 12.9147 74.4679 8.23877 82.9292 8.23877H92.3924V12.9147H83.0405V12.8034Z" fill="#30D5C8"/>
<path d="M95.0645 15.4751H100.297V25.0496L108.758 15.4751H115.438L106.198 25.2723L115.438 35.4035H108.313L100.297 25.7176V35.4035H95.0645V15.4751Z" fill="#30D5C8"/>
<path d="M117.107 15.4751H127.907C133.362 15.4751 136.145 17.9244 136.145 22.9343V35.4035H122.006C117.887 35.4035 115.883 33.5109 115.883 29.6143C115.883 27.165 116.662 25.495 118.109 24.493C119.334 23.7137 121.227 23.2683 123.787 23.2683H130.69V22.823C130.69 21.487 130.245 20.5964 129.243 20.151C128.575 19.817 127.461 19.7057 125.903 19.7057H117.107V15.4751ZM124.121 31.3956H130.69V27.2763H124.455C123.453 27.2763 122.674 27.3876 122.229 27.6103C121.561 27.9443 121.227 28.6123 121.227 29.5029C121.227 30.3936 121.561 30.8389 122.117 31.1729C122.451 31.2842 123.119 31.3956 124.121 31.3956Z" fill="#30D5C8"/>
<path d="M157.632 35.4033H147.724C144.941 35.4033 142.937 34.8466 141.601 33.8446C140.153 32.62 139.374 30.7273 139.374 28.0554V15.4749H144.607V27.7214C144.607 29.0574 144.829 29.948 145.275 30.3934C145.72 30.8387 146.611 31.0613 147.947 31.0613H152.177V15.4749H157.41V35.4033H157.632ZM151.064 13.1369H145.497V8.12695H151.064V13.1369Z" fill="#30D5C8"/>
<path d="M182.905 12.9147H173.553V8.23877H183.016C191.589 8.23877 195.819 12.9147 195.819 22.2666C195.819 27.1652 194.483 30.7278 191.7 32.9545C189.696 34.5131 186.913 35.2924 183.239 35.2924H173.553V30.6165H182.905C185.243 30.6165 186.913 30.0598 187.915 29.0579C188.917 28.0559 189.362 26.2746 189.362 24.0479H173.553V19.2606H189.362C189.362 15.03 187.247 12.9147 182.905 12.9147Z" fill="#0B2B37"/>
<path d="M199.271 15.4751H204.504V25.0496L212.965 15.4751H219.645L210.405 25.2723L219.645 35.4035H212.52L204.504 25.7176V35.4035H199.271V15.4751Z" fill="#0B2B37"/>
<path d="M231.668 31.0616H237.235V35.4035H230.11C226.77 35.4035 224.209 34.6242 222.65 33.0655C220.647 31.1729 219.756 28.6123 219.756 25.6063C219.756 22.3777 220.758 19.817 222.65 17.9244C224.32 16.3658 226.77 15.5864 230.11 15.5864H237.235V19.9284H231.668C229.33 19.9284 227.772 20.2624 226.77 21.0417C225.656 21.9324 225.1 23.3797 225.1 25.6063C225.1 28.5009 226.213 30.2823 228.328 30.9502C228.551 31.0616 229.33 31.0616 230.444 31.1729C231 31.0616 231.446 31.0616 231.668 31.0616Z" fill="#0B2B37"/>
<path d="M239.573 15.4751H249.482C252.265 15.4751 254.269 16.0318 255.605 17.0337C257.052 18.1471 257.832 20.151 257.832 22.823V35.5149H252.599V23.3797C252.599 21.9324 252.376 21.0417 251.931 20.5964C251.486 20.151 250.484 19.817 249.148 19.817H244.917V35.4035H239.685V15.4751H239.573Z" fill="#0B2B37"/>
<path d="M261.172 15.4751H271.303C274.42 15.4751 276.87 16.3658 278.54 18.2584C280.21 20.0397 280.989 22.489 280.989 25.7176C280.989 28.3896 280.321 30.6163 278.874 32.3976C277.204 34.4015 274.643 35.5149 270.969 35.5149H266.404V42.7514H261.172V15.4751ZM266.516 19.7057V31.0616H269.744C271.86 31.0616 273.307 30.6162 274.198 29.7256C275.088 28.8349 275.534 27.3876 275.534 25.2723C275.534 23.2683 275.088 21.821 274.309 21.0417C273.53 20.151 272.082 19.817 270.078 19.817H266.516V19.7057Z" fill="#0B2B37"/>
<path d="M292.121 35.4035C285.442 35.4035 282.102 32.0636 282.102 25.495C282.102 18.8151 285.442 15.4751 292.121 15.4751H299.803V19.7057H292.789C291.119 19.7057 289.895 19.9284 289.227 20.2624C288.336 20.819 287.891 21.821 287.891 23.3797H299.803V27.6103H287.891C287.891 29.1689 288.336 30.2823 289.227 30.7276C289.895 31.0616 291.008 31.2842 292.789 31.2842H299.803V35.5149H292.121V35.4035Z" fill="#0B2B37"/>
<path d="M312.941 31.0616H318.507V35.4035H311.382C308.042 35.4035 305.482 34.6242 303.923 33.0655C301.919 31.1729 301.028 28.6123 301.028 25.6063C301.028 22.3777 302.03 19.817 303.923 17.9244C305.593 16.3658 308.042 15.5864 311.382 15.5864H318.507V19.9284H312.941C310.603 19.9284 309.044 20.2624 308.042 21.0417C306.929 21.9324 306.372 23.3797 306.372 25.6063C306.372 28.5009 307.486 30.2823 309.601 30.9502C309.824 31.0616 310.603 31.0616 311.716 31.1729C312.273 31.0616 312.718 31.0616 312.941 31.0616Z" fill="#0B2B37"/>
<path d="M331.756 31.0616H337.323V35.4035H330.198C326.858 35.4035 324.297 34.6242 322.738 33.0655C320.734 31.1729 319.844 28.6123 319.844 25.6063C319.844 22.3777 320.846 19.817 322.738 17.9244C324.408 16.3658 326.858 15.5864 330.198 15.5864H337.323V19.9284H331.756C329.418 19.9284 327.86 20.2624 326.858 21.0417C325.744 21.9324 325.188 23.3797 325.188 25.6063C325.188 28.5009 326.301 30.2823 328.416 30.9502C328.639 31.0616 329.418 31.0616 330.532 31.1729C331.088 31.0616 331.534 31.0616 331.756 31.0616Z" fill="#0B2B37"/>
<path d="M74.9132 47.7608H72.4639V46.5361H75.0245C77.2511 46.5361 78.3645 47.7608 78.3645 50.2101C78.3645 51.5461 78.0305 52.4367 77.2511 52.9934C76.6945 53.4387 76.0265 53.6614 75.0245 53.6614H72.4639V52.4367H74.9132C75.4698 52.4367 75.9152 52.3254 76.2492 51.9914C76.4718 51.7687 76.6945 51.2121 76.6945 50.6554H72.4639V49.4308H76.6945C76.5832 48.3174 76.0265 47.7608 74.9132 47.7608Z" fill="#0B2B37"/>
<path d="M81.0361 48.4297H82.4834V50.9903L84.7101 48.4297H86.4914L84.0421 50.9903L86.4914 53.6623H84.4874L82.3721 51.1017V53.6623H80.9248V48.4297H81.0361Z" fill="#0B2B37"/>
<path d="M91.2794 52.5485H92.7267V53.6618H90.8341C89.9434 53.6618 89.2754 53.4391 88.8301 52.9938C88.2735 52.4372 88.0508 51.7692 88.0508 50.9898C88.0508 50.0992 88.2735 49.4312 88.8301 48.9859C89.2754 48.5405 89.9434 48.3179 90.8341 48.3179H92.7267V49.4312H91.2794C90.7228 49.4312 90.2774 49.5425 89.9434 49.7652C89.6094 49.9879 89.4981 50.4332 89.4981 50.9898C89.4981 51.7692 89.8321 52.2145 90.3888 52.4372C90.5001 52.4372 90.6114 52.4372 90.9454 52.4372C91.1681 52.5485 91.2794 52.5485 91.2794 52.5485Z" fill="#0B2B37"/>
<path d="M95.1758 48.4297H97.8478C98.6271 48.4297 99.1837 48.541 99.5177 48.875C99.8517 49.209 100.074 49.6543 100.074 50.4337V53.7736H98.7384V50.545C98.7384 50.211 98.6271 49.877 98.5157 49.7657C98.4044 49.6543 98.1817 49.543 97.7364 49.543H96.6231V53.6623H95.1758V48.4297Z" fill="#0B2B37"/>
<path d="M102.635 48.4297H105.307C106.086 48.4297 106.754 48.6524 107.199 49.209C107.645 49.6543 107.867 50.3223 107.867 51.213C107.867 51.881 107.645 52.549 107.311 52.9943C106.865 53.551 106.197 53.7736 105.195 53.7736H103.971V55.6663H102.523V48.4297H102.635ZM104.082 49.543V52.549H104.973C105.529 52.549 105.975 52.4376 106.197 52.215C106.42 51.9923 106.531 51.547 106.531 50.9903C106.531 50.4337 106.42 50.0997 106.197 49.877C105.975 49.6543 105.641 49.543 105.084 49.543H104.082Z" fill="#0B2B37"/>
<path d="M112.543 53.6618C110.762 53.6618 109.871 52.7712 109.871 50.9898C109.871 49.2085 110.762 48.3179 112.543 48.3179H114.547V49.4312H112.654C112.209 49.4312 111.875 49.4312 111.764 49.5425C111.541 49.6539 111.43 49.9879 111.43 50.3218H114.547V51.4352H111.43C111.43 51.8805 111.541 52.1032 111.764 52.2145C111.986 52.3258 112.209 52.3258 112.654 52.3258H114.547V53.4391H112.543V53.6618Z" fill="#0B2B37"/>
<path d="M119.779 52.5485H121.227V53.6618H119.334C118.443 53.6618 117.775 53.4391 117.33 52.9938C116.773 52.4372 116.551 51.7692 116.551 50.9898C116.551 50.0992 116.773 49.4312 117.33 48.9859C117.775 48.5405 118.443 48.3179 119.334 48.3179H121.227V49.4312H119.779C119.223 49.4312 118.777 49.5425 118.443 49.7652C118.109 49.9879 117.998 50.4332 117.998 50.9898C117.998 51.7692 118.332 52.2145 118.889 52.4372C119 52.4372 119.111 52.4372 119.445 52.4372C119.668 52.5485 119.779 52.5485 119.779 52.5485Z" fill="#0B2B37"/>
<path d="M126.571 52.5485H128.019V53.6618H126.126C125.235 53.6618 124.567 53.4391 124.122 52.9938C123.565 52.4372 123.343 51.7692 123.343 50.9898C123.343 50.0992 123.565 49.4312 124.122 48.9859C124.567 48.5405 125.235 48.3179 126.126 48.3179H128.019V49.4312H126.571C126.015 49.4312 125.569 49.5425 125.235 49.7652C124.901 49.9879 124.79 50.4332 124.79 50.9898C124.79 51.7692 125.124 52.2145 125.681 52.4372C125.792 52.4372 125.903 52.4372 126.237 52.4372C126.46 52.5485 126.46 52.5485 126.571 52.5485Z" fill="#0B2B37"/>
<path d="M130.022 50.3223H133.362V51.5469H130.022V50.3223Z" fill="#0B2B37"/>
<path d="M139.263 55.5545V53.6618H138.038C137.036 53.6618 136.368 53.4391 135.923 52.8825C135.589 52.4372 135.366 51.7692 135.366 51.1012C135.366 50.2105 135.589 49.6539 136.034 49.0972C136.48 48.6519 137.148 48.3179 137.927 48.3179H140.599V55.5545H139.263ZM138.372 52.5485H139.263V49.5425H138.261C137.704 49.5425 137.37 49.6539 137.148 49.8765C136.925 50.0992 136.814 50.4332 136.814 50.9898C136.814 51.5465 136.925 51.9918 137.148 52.2145C137.482 52.4372 137.816 52.5485 138.372 52.5485Z" fill="#0B2B37"/>
<path d="M148.614 50.9903C148.614 51.881 148.392 52.549 147.835 52.9943C147.278 53.4396 146.61 53.7736 145.831 53.7736C145.052 53.7736 144.273 53.551 143.827 52.9943C143.271 52.549 143.048 51.881 143.048 50.9903C143.048 50.0997 143.271 49.4317 143.827 48.9864C144.384 48.541 145.052 48.207 145.831 48.207C146.722 48.207 147.39 48.4297 147.835 48.9864C148.28 49.543 148.614 50.211 148.614 50.9903ZM144.384 50.9903C144.384 51.4357 144.495 51.881 144.718 52.1037C144.94 52.4376 145.274 52.549 145.72 52.549C146.165 52.549 146.499 52.4376 146.722 52.1037C146.944 51.7697 147.056 51.4357 147.056 50.9903C147.056 49.877 146.61 49.4317 145.72 49.4317C145.274 49.4317 144.94 49.543 144.718 49.877C144.495 50.211 144.384 50.545 144.384 50.9903Z" fill="#0B2B37"/>
<path d="M153.736 52.5485H155.184V53.6618H153.291C152.4 53.6618 151.732 53.4391 151.287 52.9938C150.73 52.4372 150.508 51.7692 150.508 50.9898C150.508 50.0992 150.73 49.4312 151.287 48.9859C151.732 48.5405 152.4 48.3179 153.291 48.3179H155.184V49.4312H153.736C153.18 49.4312 152.734 49.5425 152.4 49.7652C152.066 49.9879 151.955 50.4332 151.955 50.9898C151.955 51.7692 152.289 52.2145 152.846 52.4372C152.957 52.4372 153.068 52.4372 153.402 52.4372C153.625 52.5485 153.736 52.5485 153.736 52.5485Z" fill="#0B2B37"/>
<path d="M157.633 48.4297H162.977C163.756 48.4297 164.201 48.541 164.535 48.875C164.869 49.209 165.092 49.6543 165.092 50.4337V53.7736H163.645V50.545C163.645 50.211 163.533 49.877 163.422 49.7657C163.311 49.6543 163.088 49.543 162.643 49.543H161.863V53.6623H160.416V49.543H158.746V53.6623H157.299V48.4297H157.633Z" fill="#0B2B37"/>
<path d="M167.986 48.4297H170.881C172.328 48.4297 173.108 49.0977 173.108 50.4337V53.7736H169.322C168.209 53.7736 167.652 53.217 167.652 52.215C167.652 51.547 167.875 51.1017 168.209 50.879C168.543 50.6563 168.988 50.545 169.768 50.545H171.66V50.4337C171.66 50.0997 171.549 49.877 171.326 49.7657C171.104 49.6543 170.881 49.6543 170.436 49.6543H167.986V48.4297ZM169.879 52.6603H171.66V51.547H169.99C169.768 51.547 169.545 51.547 169.434 51.6583C169.211 51.7696 169.211 51.881 169.211 52.1036C169.211 52.3263 169.322 52.4376 169.434 52.549C169.434 52.549 169.545 52.6603 169.879 52.6603Z" fill="#0B2B37"/>
<path d="M175.669 48.4297H179.454C180.568 48.4297 181.124 48.9863 181.124 49.9883C181.124 50.4337 181.013 50.879 180.79 51.1017C181.013 51.3243 181.124 51.7696 181.124 52.215C181.124 53.217 180.568 53.7736 179.454 53.7736H175.669V48.4297ZM177.116 49.4317V50.4337H179.232C179.566 50.4337 179.677 50.211 179.677 49.877C179.677 49.6543 179.566 49.543 179.454 49.4317C179.343 49.4317 179.232 49.3203 178.898 49.3203H177.116V49.4317ZM178.898 52.6603C179.12 52.6603 179.343 52.6603 179.454 52.549C179.566 52.4376 179.677 52.3263 179.677 52.1036C179.677 51.881 179.566 51.6583 179.454 51.547C179.343 51.4357 179.12 51.4357 178.898 51.4357H177.228V52.549H178.898V52.6603Z" fill="#0B2B37"/>
<path d="M183.685 48.4297H185.132V50.9903L187.359 48.4297H189.14L186.691 50.9903L189.14 53.6623H187.247L185.132 51.1017V53.6623H183.685V48.4297Z" fill="#0B2B37"/>
<path d="M191.255 48.4297H194.15C195.597 48.4297 196.376 49.0977 196.376 50.4337V53.7736H192.48C191.366 53.7736 190.81 53.217 190.81 52.215C190.81 51.547 191.032 51.1017 191.366 50.879C191.7 50.6563 192.146 50.545 192.925 50.545H194.818V50.4337C194.818 50.0997 194.706 49.877 194.484 49.7657C194.261 49.6543 194.038 49.6543 193.593 49.6543H191.255V48.4297ZM193.036 52.6603H194.818V51.547H193.148C192.925 51.547 192.702 51.547 192.591 51.6583C192.368 51.7696 192.368 51.881 192.368 52.1036C192.368 52.3263 192.48 52.4376 192.591 52.549C192.702 52.549 192.814 52.6603 193.036 52.6603Z" fill="#0B2B37"/>
<path d="M199.272 54.6646V53.774H198.715V52.5493H199.939V53.44C199.939 53.8853 199.717 54.3306 199.272 54.6646Z" fill="#0B2B37"/>
<path d="M211.184 55.5545V53.6618H209.959C208.957 53.6618 208.289 53.4391 207.844 52.8825C207.51 52.4372 207.287 51.7692 207.287 51.1012C207.287 50.2105 207.51 49.6539 207.955 49.0972C208.4 48.6519 209.068 48.3179 209.848 48.3179H212.52V55.5545H211.184ZM210.404 52.5485H211.295V49.5425H210.293C209.736 49.5425 209.402 49.6539 209.18 49.8765C208.957 50.0992 208.846 50.4332 208.846 50.9898C208.846 51.5465 208.957 51.9918 209.18 52.2145C209.402 52.4372 209.848 52.5485 210.404 52.5485Z" fill="#0B2B37"/>
<path d="M220.535 50.9903C220.535 51.881 220.313 52.549 219.756 52.9943C219.199 53.4396 218.531 53.7736 217.752 53.7736C216.861 53.7736 216.193 53.551 215.748 52.9943C215.191 52.549 214.969 51.881 214.969 50.9903C214.969 50.0997 215.191 49.4317 215.748 48.9864C216.305 48.541 216.973 48.207 217.752 48.207C218.643 48.207 219.311 48.4297 219.756 48.9864C220.313 49.543 220.535 50.211 220.535 50.9903ZM216.416 50.9903C216.416 51.4357 216.527 51.881 216.75 52.1037C216.973 52.4376 217.307 52.549 217.752 52.549C218.197 52.549 218.531 52.4376 218.754 52.1037C218.977 51.7697 219.088 51.4357 219.088 50.9903C219.088 49.877 218.643 49.4317 217.752 49.4317C217.307 49.4317 216.973 49.543 216.75 49.877C216.527 50.211 216.416 50.545 216.416 50.9903Z" fill="#0B2B37"/>
<path d="M225.656 52.5485H227.104V53.6618H225.211C224.32 53.6618 223.652 53.4391 223.207 52.9938C222.65 52.4372 222.428 51.7692 222.428 50.9898C222.428 50.0992 222.65 49.4312 223.207 48.9859C223.652 48.5405 224.32 48.3179 225.211 48.3179H227.104V49.4312H225.656C225.1 49.4312 224.654 49.5425 224.32 49.7652C223.986 49.9879 223.875 50.4332 223.875 50.9898C223.875 51.7692 224.209 52.2145 224.766 52.4372C224.877 52.4372 224.988 52.4372 225.322 52.4372C225.545 52.5485 225.656 52.5485 225.656 52.5485Z" fill="#0B2B37"/>
<path d="M229.553 48.4297H234.897C235.676 48.4297 236.121 48.541 236.455 48.875C236.789 49.209 237.012 49.6543 237.012 50.4337V53.7736H235.565V50.545C235.565 50.211 235.453 49.877 235.342 49.7657C235.231 49.6543 235.008 49.543 234.563 49.543H233.783V53.6623H232.559V49.543H230.889V53.6623H229.441V48.4297H229.553Z" fill="#0B2B37"/>
<path d="M242.023 52.5485H243.136V48.4292H244.583V53.5505C244.583 54.8865 243.915 55.5545 242.579 55.5545H239.796V54.4411H242.245C242.802 54.4411 243.025 54.2185 243.025 53.6618V53.5505H241.8C241.021 53.5505 240.464 53.4391 240.13 53.1051C239.796 52.7712 239.573 52.2145 239.573 51.5465V48.3179H240.909V51.4352C240.909 51.7692 241.021 52.1032 241.132 52.2145C241.466 52.4372 241.689 52.5485 242.023 52.5485Z" fill="#0B2B37"/>
<path d="M247.255 48.4297H249.927C250.706 48.4297 251.263 48.541 251.597 48.875C251.931 49.209 252.154 49.6543 252.154 50.4337V53.7736H250.818V50.545C250.818 50.211 250.706 49.877 250.595 49.7657C250.484 49.6543 250.261 49.543 249.816 49.543H248.702V53.6623H247.255V48.4297Z" fill="#0B2B37"/>
<path d="M256.162 50.4332H258.166V48.3179H259.613V53.5505H258.166V51.4352H256.162V53.5505H254.715V48.3179H256.162V50.4332Z" fill="#0B2B37"/>
<path d="M262.396 48.4297H265.291C266.738 48.4297 267.518 49.0977 267.518 50.4337V53.7736H263.732C262.619 53.7736 262.062 53.217 262.062 52.215C262.062 51.547 262.285 51.1017 262.619 50.879C262.953 50.6563 263.398 50.545 264.178 50.545H266.07V50.4337C266.07 50.0997 265.959 49.877 265.736 49.7657C265.514 49.6543 265.291 49.6543 264.846 49.6543H262.508V48.4297H262.396ZM264.178 52.6603H265.959V51.547H264.289C264.066 51.547 263.844 51.547 263.732 51.6583C263.51 51.7696 263.51 51.881 263.51 52.1036C263.51 52.3263 263.621 52.4376 263.732 52.549C263.732 52.549 263.955 52.6603 264.178 52.6603Z" fill="#0B2B37"/>
<path d="M273.641 51.5465L271.859 53.6618H269.967L271.859 51.5465C271.191 51.5465 270.746 51.4352 270.412 51.2125C270.078 50.9898 269.855 50.5445 269.855 49.8765C269.855 48.8745 270.412 48.3179 271.525 48.3179H275.311V53.5505H273.863V51.4352H273.641V51.5465ZM272.193 49.4312C271.971 49.4312 271.748 49.4312 271.637 49.5425C271.525 49.6539 271.414 49.7652 271.414 49.9879C271.414 50.2105 271.525 50.4332 271.637 50.4332C271.748 50.5445 271.971 50.5445 272.193 50.5445H273.863V49.4312H272.193Z" fill="#0B2B37"/>
<path d="M283.215 48.4297H284.662V50.9903L286.889 48.4297H288.67L286.221 50.9903L288.67 53.6623H286.777L284.662 51.1017V53.6623H283.215V48.4297Z" fill="#0B2B37"/>
<path d="M290.786 48.4297H293.681C295.128 48.4297 295.907 49.0977 295.907 50.4337V53.7736H292.122C291.009 53.7736 290.452 53.217 290.452 52.215C290.452 51.547 290.675 51.1017 291.009 50.879C291.343 50.6563 291.788 50.545 292.567 50.545H294.46V50.4337C294.46 50.0997 294.349 49.877 294.126 49.7657C293.903 49.6543 293.681 49.6543 293.235 49.6543H290.897V48.4297H290.786ZM292.679 52.6603H294.46V51.547H292.79C292.567 51.547 292.345 51.547 292.233 51.6583C292.011 51.7696 292.011 51.881 292.011 52.1036C292.011 52.3263 292.122 52.4376 292.233 52.549C292.233 52.549 292.345 52.6603 292.679 52.6603Z" fill="#0B2B37"/>
<path d="M303.923 51.1017V53.6623H302.587V51.1017L300.472 53.6623H298.579L301.028 50.9903L298.579 48.4297H300.36L302.587 50.9903V48.4297H303.923V50.9903L306.15 48.4297H307.931L305.482 50.9903L307.931 53.6623H306.038L303.923 51.1017Z" fill="#0B2B37"/>
<path d="M313.497 55.5545V53.6618H312.273C311.271 53.6618 310.603 53.4391 310.157 52.8825C309.823 52.4372 309.601 51.7692 309.601 51.1012C309.601 50.2105 309.823 49.6539 310.269 49.0972C310.714 48.6519 311.382 48.3179 312.161 48.3179H314.833V55.5545H313.497ZM312.718 52.5485H313.609V49.5425H312.607C312.05 49.5425 311.716 49.6539 311.493 49.8765C311.271 50.0992 311.159 50.4332 311.159 50.9898C311.159 51.5465 311.271 51.9918 311.493 52.2145C311.716 52.4372 312.05 52.5485 312.718 52.5485Z" fill="#0B2B37"/>
<path d="M322.849 50.9903C322.849 51.881 322.626 52.549 322.069 52.9943C321.513 53.4396 320.845 53.7736 320.066 53.7736C319.175 53.7736 318.507 53.551 318.062 52.9943C317.505 52.549 317.282 51.881 317.282 50.9903C317.282 50.0997 317.505 49.4317 318.062 48.9864C318.618 48.541 319.286 48.207 320.066 48.207C320.956 48.207 321.624 48.4297 322.069 48.9864C322.515 49.543 322.849 50.211 322.849 50.9903ZM318.73 50.9903C318.73 51.4357 318.841 51.881 319.064 52.1037C319.286 52.4376 319.62 52.549 320.066 52.549C320.511 52.549 320.845 52.4376 321.068 52.1037C321.29 51.7697 321.401 51.4357 321.401 50.9903C321.401 49.877 320.956 49.4317 320.066 49.4317C319.62 49.4317 319.286 49.543 319.064 49.877C318.841 50.211 318.73 50.545 318.73 50.9903Z" fill="#0B2B37"/>
<path d="M326.635 50.3223V53.6623H325.188V48.4297H326.857L327.971 49.9883L329.084 48.4297H330.754V53.6623H329.307V50.3223L327.971 52.1036L326.635 50.3223Z" fill="#0B2B37"/>
<path d="M335.652 52.5485H336.766V48.4292H338.213V53.5505C338.213 54.8865 337.545 55.5545 336.209 55.5545H333.426V54.4411H335.875C336.432 54.4411 336.654 54.2185 336.654 53.6618V53.5505H335.43C334.65 53.5505 334.094 53.4391 333.76 53.1051C333.426 52.7712 333.203 52.2145 333.203 51.5465V48.3179H334.539V51.4352C334.539 51.7692 334.65 52.1032 334.762 52.2145C334.984 52.4372 335.207 52.5485 335.652 52.5485Z" fill="#0B2B37"/>
</svg>
