<svg width="28" height="28" viewBox="0 0 28 28" fill="none" xmlns="http://www.w3.org/2000/svg">
<path fill-rule="evenodd" clip-rule="evenodd" d="M12.4754 9.11687C13.1662 8.18593 13.4139 7.2048 12.6326 6.33875C10.8793 3.88545 9.7002 2.36833 8.96059 1.63772C7.55451 0.248746 5.24149 0.436628 4.02372 1.63654C3.36965 2.28102 3.14822 2.50234 2.47662 3.18449C-1.26425 6.92736 1.01713 14.8397 7.08185 20.9104C13.1452 26.9797 21.0568 29.2623 24.8055 25.5115C25.4252 24.914 25.9499 24.389 26.3637 23.9516C27.5571 22.6903 27.7383 20.4793 26.3559 19.0429C25.6471 18.3065 24.2004 17.1843 21.6439 15.3556C20.8609 14.6554 19.9325 14.8072 19.0814 15.3656C18.672 15.6342 18.374 15.9059 17.8114 16.4691L16.7897 17.4913C16.6552 17.6259 14.828 16.7109 13.0543 14.9355C11.2796 13.159 10.3652 11.3318 10.4991 11.1978C10.7753 10.9217 11.1161 10.5807 11.5215 10.1749C11.7 9.99623 11.7853 9.90972 11.8948 9.7947C12.1228 9.55506 12.3116 9.33759 12.4754 9.11687ZM18.6743 19.3769L19.6962 18.3545C20.0058 18.0446 20.2065 17.854 20.3697 17.7226C22.6093 19.3309 23.9063 20.3422 24.4361 20.8926C24.7542 21.2231 24.7047 21.8262 24.4282 22.1184C24.0456 22.5229 23.5484 23.0203 22.9383 23.6088C20.5143 26.0338 14.1279 24.1913 8.96684 19.0252C3.8042 13.8574 1.96251 7.47008 4.36826 5.06301C5.03715 4.38366 5.24907 4.17185 5.89381 3.53657C6.13555 3.29837 6.79403 3.24488 7.0881 3.53538C7.65752 4.09788 8.71379 5.45035 10.2676 7.6148C10.1872 7.71466 10.0867 7.82752 9.96444 7.95602C9.87471 8.05033 9.79995 8.12611 9.63651 8.28971C9.23143 8.69519 8.89097 9.03584 8.61515 9.31163C6.87762 11.049 8.35736 14.006 11.1693 16.8207C13.9793 19.6335 16.9374 21.1148 18.6743 19.3769Z" fill="#30D5C8"/>
</svg>
