<svg width="22" height="15" viewBox="0 0 22 15" fill="none" xmlns="http://www.w3.org/2000/svg">
<path fill-rule="evenodd" clip-rule="evenodd" d="M15.382 2L17.2243 5.68474L20 7.53518V11H18.8293C18.4175 9.83481 17.3062 9 16 9C14.6938 9 13.5825 9.83481 13.1707 11H8.82929C8.41746 9.83481 7.30622 9 6 9C4.69378 9 3.58254 9.83481 3.17071 11H2V2H15.382ZM20 13H18.8293C18.4175 14.1652 17.3062 15 16 15C14.6938 15 13.5825 14.1652 13.1707 13H8.82929C8.41746 14.1652 7.30622 15 6 15C4.69378 15 3.58254 14.1652 3.17071 13H2C0.89543 13 0 12.1046 0 11V2C0 0.89543 0.89543 0 2 0H15.382C16.1395 0 16.832 0.428005 17.1708 1.10557L18.7757 4.31526L22 6.46482V11C22 12.1046 21.1046 13 20 13ZM7 12C7 12.5523 6.55228 13 6 13C5.44772 13 5 12.5523 5 12C5 11.4477 5.44772 11 6 11C6.55228 11 7 11.4477 7 12ZM17 12C17 12.5523 16.5523 13 16 13C15.4477 13 15 12.5523 15 12C15 11.4477 15.4477 11 16 11C16.5523 11 17 11.4477 17 12Z" fill="#A8A8A8"/>
</svg>
