<svg width="28" height="28" viewBox="0 0 28 28" fill="none" xmlns="http://www.w3.org/2000/svg">
<path d="M14.0003 27.3327C6.63653 27.3327 0.666992 21.3631 0.666992 13.9993C0.666992 6.63555 6.63653 0.666016 14.0003 0.666016C21.3641 0.666016 27.3337 6.63555 27.3337 13.9993C27.3256 21.3598 21.3608 27.3246 14.0003 27.3327ZM13.979 24.666H14.0003C19.8893 24.6601 24.6593 19.883 24.6563 13.994C24.6534 8.10507 19.8786 3.33269 13.9897 3.33269C8.1007 3.33269 3.32594 8.10507 3.32299 13.994C3.32005 19.883 8.09004 24.6601 13.979 24.666ZM11.3337 20.666L6.00033 15.3327L7.88033 13.4527L11.3337 16.8927L20.1203 8.10602L22.0003 9.99935L11.3337 20.666Z" fill="#30D5C8"/>
</svg>
