<svg width="21" height="20" viewBox="0 0 21 20" fill="none" xmlns="http://www.w3.org/2000/svg">
<path d="M12.5002 20.0002H2.50019C1.96427 20.0188 1.44467 19.8141 1.06548 19.4349C0.686295 19.0557 0.481568 18.5361 0.500192 18.0002V8.00019C0.481568 7.46427 0.686295 6.94467 1.06548 6.56548C1.44467 6.1863 1.96427 5.98157 2.50019 6.00019H6.50019V2.00019C6.48157 1.46427 6.6863 0.944666 7.06548 0.56548C7.44467 0.186295 7.96427 -0.0184319 8.50019 0.000191672H18.5002C19.0361 -0.0184319 19.5557 0.186295 19.9349 0.56548C20.3141 0.944666 20.5188 1.46427 20.5002 2.00019V12.0002C20.5185 12.536 20.3137 13.0555 19.9346 13.4346C19.5555 13.8137 19.036 14.0185 18.5002 14.0002H14.5002V18.0002C14.5185 18.536 14.3137 19.0555 13.9346 19.4346C13.5555 19.8137 13.036 20.0185 12.5002 20.0002ZM2.50019 8.00019V18.0002H12.5002V14.0002H8.50019C7.96435 14.0185 7.44493 13.8137 7.06581 13.4346C6.68669 13.0555 6.48187 12.536 6.50019 12.0002V8.00019H2.50019ZM8.50019 2.00019V12.0002H18.5002V2.00019H8.50019Z" fill="#0B2B37"/>
</svg>
