<svg width="14" height="18" viewBox="0 0 14 18" fill="none" xmlns="http://www.w3.org/2000/svg">
<path fill-rule="evenodd" clip-rule="evenodd" d="M9.56066 0.75H1.75C0.921573 0.75 0.25 1.42157 0.25 2.25V15.75C0.25 16.5784 0.921573 17.25 1.75 17.25H12.25C13.0784 17.25 13.75 16.5784 13.75 15.75V4.93934L9.56066 0.75ZM1.75 2.25H7.75V5.25C7.75 6.07843 8.42157 6.75 9.25 6.75H12.25V15.75H1.75V2.25ZM9.25 5.25V2.56066L11.9393 5.25H9.25ZM3.84473 11.4053L7.28407 11.4053L6.3144 12.375L7.37506 13.4357L10.1554 10.6553L7.37506 7.875L6.3144 8.93566L7.28407 9.90533H3.84473L3.84473 11.4053Z" fill="#AC007C"/>
</svg>
