<svg width="16" height="20" viewBox="0 0 16 20" fill="none" xmlns="http://www.w3.org/2000/svg">
<path d="M14 20H2C0.89543 20 0 19.1046 0 18V2.00002C0 0.895447 0.89543 1.69814e-05 2 1.69814e-05H9C9.00896 -0.00114498 9.01804 -0.00114498 9.027 1.69814e-05H9.033C9.04244 0.00297504 9.05216 0.00498497 9.062 0.00601698C9.15019 0.0116702 9.23726 0.0288151 9.321 0.057017H9.363C9.38145 0.0699428 9.39884 0.0843218 9.415 0.100017C9.52394 0.148441 9.62321 0.216202 9.708 0.300017L15.708 6.30002C15.7918 6.3848 15.8596 6.48407 15.908 6.59302C15.917 6.61502 15.924 6.63602 15.931 6.65902L15.941 6.68702C15.9689 6.77041 15.9854 6.8572 15.99 6.94502C15.9909 6.95498 15.9932 6.96476 15.997 6.97402V6.98002C15.9986 6.98657 15.9996 6.99327 16 7.00002V18C16 18.5305 15.7893 19.0392 15.4142 19.4142C15.0391 19.7893 14.5304 20 14 20ZM11.461 12C10.9993 11.9743 10.5547 12.1783 10.273 12.545C9.9754 13.0039 9.83307 13.5462 9.867 14.092V14.968C9.83842 15.5084 9.99466 16.0423 10.31 16.482C10.6102 16.8325 11.0561 17.0239 11.517 17C11.803 17.003 12.0868 16.9507 12.353 16.846H12.361H12.355C12.3643 16.8406 12.374 16.8359 12.384 16.832H12.389L12.405 16.824L12.426 16.814C12.6443 16.7136 12.8381 16.5669 12.994 16.384V14.373H11.45V15.115H12.087V16.008L12.007 16.068C11.8771 16.1507 11.7249 16.1915 11.571 16.185C11.3289 16.2041 11.0959 16.0889 10.964 15.885C10.8215 15.5829 10.7585 15.2493 10.781 14.916V14.033C10.7637 13.7153 10.823 13.398 10.954 13.108C11.0617 12.9162 11.2695 12.8028 11.489 12.816C11.656 12.8021 11.8201 12.8651 11.935 12.987C12.0542 13.1761 12.1167 13.3955 12.115 13.619H13C13.0018 13.1723 12.8488 12.7387 12.567 12.392C12.2696 12.1127 11.8679 11.9706 11.461 12ZM3 15.5C2.97854 15.8961 3.10068 16.2867 3.344 16.6C3.58813 16.8719 3.94207 17.0189 4.307 17C4.66938 17.0087 5.0159 16.8515 5.248 16.573C5.50316 16.2506 5.63283 15.8467 5.613 15.436V12.067H4.7V15.389C4.7 15.917 4.567 16.189 4.3 16.189C4.033 16.189 3.907 15.957 3.907 15.5H3ZM6.327 12.071V16.937H7.237V15.222H7.844C8.24953 15.2444 8.64556 15.094 8.934 14.808C9.20751 14.4972 9.34824 14.0915 9.326 13.678C9.34372 13.2535 9.2009 12.8379 8.926 12.514C8.65529 12.2138 8.26486 12.05 7.861 12.067L6.327 12.071ZM9 2.00002V7.00002H14L9 2.00002ZM7.862 14.4H7.237V12.885H7.872C8.03163 12.8857 8.1794 12.9694 8.262 13.106C8.36748 13.2797 8.41835 13.4811 8.408 13.684C8.42047 13.8731 8.37059 14.061 8.266 14.219C8.16854 14.3411 8.01802 14.4086 7.862 14.4Z" fill="#0B2B37"/>
</svg>
