<svg width="16" height="18" viewBox="0 0 16 18" fill="none" xmlns="http://www.w3.org/2000/svg">
<path d="M8 17.3334L5.5 14.8334H2.16667C1.24619 14.8334 0.5 14.0872 0.5 13.1667V2.33335C0.5 1.41288 1.24619 0.666687 2.16667 0.666687H13.8333C14.7538 0.666687 15.5 1.41288 15.5 2.33335V13.1667C15.5 14.0872 14.7538 14.8334 13.8333 14.8334H10.5L8 17.3334ZM2.16667 2.33335V13.1667H6.33333L8 14.8334L9.66667 13.1667H13.8333V2.33335H2.16667ZM11.3333 11.4884H4.66667V11.1667C4.76529 9.42093 6.25354 8.08151 8 8.16669C9.74646 8.08151 11.2347 9.42093 11.3333 11.1667V11.4875V11.4884ZM8 7.33335C7.5534 7.34887 7.1204 7.17827 6.80441 6.86228C6.48842 6.54629 6.31781 6.11329 6.33333 5.66669C6.31806 5.22015 6.48875 4.7873 6.80468 4.47137C7.12061 4.15544 7.55347 3.98475 8 4.00002C8.44653 3.98475 8.87939 4.15544 9.19532 4.47137C9.51125 4.7873 9.68194 5.22015 9.66667 5.66669C9.68219 6.11329 9.51158 6.54629 9.19559 6.86228C8.8796 7.17827 8.4466 7.34887 8 7.33335Z" fill="#AC007C"/>
</svg>
