<svg width="30" height="30" viewBox="0 0 30 30" fill="none" xmlns="http://www.w3.org/2000/svg">
<path fill-rule="evenodd" clip-rule="evenodd" d="M15 29.6666C6.89983 29.6666 0.333344 23.1001 0.333344 14.9999C0.333344 6.89974 6.89983 0.333252 15 0.333252C23.1002 0.333252 29.6667 6.89974 29.6667 14.9999C29.6667 23.1001 23.1002 29.6666 15 29.6666ZM15 26.9999C21.6274 26.9999 27 21.6273 27 14.9999C27 8.3725 21.6274 2.99992 15 2.99992C8.37259 2.99992 3.00001 8.3725 3.00001 14.9999C3.00001 21.6273 8.37259 26.9999 15 26.9999ZM8.33334 20.3333V17.6666H21.6667V20.3333H8.33334ZM8.33334 9.66659V12.3333H21.6667V9.66659H8.33334ZM8.33334 13.6666V16.3333H21.6667V13.6666H8.33334Z" fill="#A8A8A8"/>
</svg>
