<svg width="24" height="21" viewBox="0 0 24 21" fill="none" xmlns="http://www.w3.org/2000/svg">
<path d="M19 20.3334H1.50004C1.1904 20.3365 0.892618 20.2144 0.674425 19.9946C0.456231 19.7749 0.336169 19.4763 0.341541 19.1667H0.333374V2.83333C0.333374 1.54467 1.37804 0.5 2.66671 0.5H9.66671C9.92729 0.500248 10.1803 0.587731 10.3854 0.7485L13.05 2.83333H19C20.2887 2.83333 21.3334 3.878 21.3334 5.16667V9.83333H22.5C22.8922 9.83338 23.2581 10.0304 23.474 10.3579C23.6898 10.6853 23.7267 11.0992 23.5722 11.4597L20.0722 19.6263C19.8884 20.0552 19.4667 20.3334 19 20.3334ZM5.77004 12.1667L3.26987 18H18.2312L20.7314 12.1667H5.77004ZM2.66671 5.16667V13.485L3.92787 10.5403C4.11172 10.1115 4.53343 9.83339 5.00004 9.83333H19V5.16667H2.66671Z" fill="#0B2B37"/>
</svg>
