<svg width="26" height="19" viewBox="0 0 26 19" fill="none" xmlns="http://www.w3.org/2000/svg">
<path fill-rule="evenodd" clip-rule="evenodd" d="M18.1123 3.16671L20.2617 7.46557L23.5 9.62442V13.6667H22.1341C21.6537 12.3073 20.3572 11.3334 18.8333 11.3334C17.3094 11.3334 16.0129 12.3073 15.5324 13.6667H10.4675C9.98699 12.3073 8.69055 11.3334 7.16663 11.3334C5.6427 11.3334 4.34626 12.3073 3.86578 13.6667H2.49996V3.16671H18.1123ZM23.5 16H22.1341C21.6537 17.3594 20.3572 18.3334 18.8333 18.3334C17.3094 18.3334 16.0129 17.3594 15.5324 16H10.4675C9.98699 17.3594 8.69055 18.3334 7.16663 18.3334C5.6427 18.3334 4.34626 17.3594 3.86578 16H2.49996C1.21129 16 0.166626 14.9554 0.166626 13.6667V3.16671C0.166626 1.87804 1.21129 0.833374 2.49996 0.833374H18.1123C18.9961 0.833374 19.804 1.33271 20.1993 2.12321L22.0716 5.86784L25.8333 8.37566V13.6667C25.8333 14.9554 24.7886 16 23.5 16ZM8.33329 14.8334C8.33329 15.4777 7.81096 16 7.16663 16C6.52229 16 5.99996 15.4777 5.99996 14.8334C5.99996 14.189 6.52229 13.6667 7.16663 13.6667C7.81096 13.6667 8.33329 14.189 8.33329 14.8334ZM20 14.8334C20 15.4777 19.4776 16 18.8333 16C18.189 16 17.6666 15.4777 17.6666 14.8334C17.6666 14.189 18.189 13.6667 18.8333 13.6667C19.4776 13.6667 20 14.189 20 14.8334Z" fill="white"/>
</svg>
