<svg width="22" height="24" viewBox="0 0 22 24" fill="none" xmlns="http://www.w3.org/2000/svg">
<path fill-rule="evenodd" clip-rule="evenodd" d="M21.5 23.6667H4C2.067 23.6667 0.5 22.0997 0.5 20.1667V3.83337C0.5 1.90038 2.067 0.333374 4 0.333374H21.5V19C20.8557 19 20.3333 19.5224 20.3333 20.1667C20.3333 20.811 20.8557 21.3334 21.5 21.3334V23.6667ZM18 20.1667C18 19.7576 18.0702 19.3649 18.1992 19H4C3.35567 19 2.83333 19.5224 2.83333 20.1667C2.83333 20.811 3.35567 21.3334 4 21.3334H18.1992C18.0702 20.9685 18 20.5758 18 20.1667ZM4 2.66671H19.1667V16.6667H4C3.59093 16.6667 3.19824 16.7369 2.83333 16.8659V3.83337C2.83333 3.18904 3.35567 2.66671 4 2.66671Z" fill="#0B2B37"/>
</svg>
