<svg width="24" height="20" viewBox="0 0 24 20" fill="none" xmlns="http://www.w3.org/2000/svg">
<path d="M21.3334 19.3334H2.66671C1.41898 19.3707 0.37586 18.3923 0.333374 17.1447V2.85422C0.375856 1.60683 1.41917 0.628721 2.66671 0.66672H21.3334C22.5809 0.628721 23.6242 1.60683 23.6667 2.85422V17.1459C23.6236 18.393 22.5807 19.3707 21.3334 19.3334ZM2.66671 3.00005V16.9872L21.3334 17.0001V3.01289L2.66671 3.00005ZM13.6684 14.6667H5.00004C5.08582 13.7008 5.54294 12.8058 6.27521 12.1701C7.0905 11.3612 8.18599 10.8975 9.33421 10.8751C10.4824 10.8975 11.5779 11.3612 12.3932 12.1701C13.1253 12.8059 13.5824 13.7009 13.6684 14.6667ZM19 13.5001H15.5V11.1667H19V13.5001ZM9.33421 10.0001C8.70896 10.0218 8.10276 9.78293 7.66038 9.34055C7.218 8.89817 6.97915 8.29197 7.00087 7.66672C6.9795 7.04157 7.21846 6.43558 7.66076 5.99327C8.10307 5.55097 8.70906 5.31201 9.33421 5.33339C9.95936 5.31201 10.5653 5.55097 11.0077 5.99327C11.45 6.43558 11.6889 7.04157 11.6675 7.66672C11.6893 8.29197 11.4504 8.89817 11.008 9.34055C10.5657 9.78293 9.95945 10.0218 9.33421 10.0001ZM19 8.83339H14.3334V6.50005H19V8.83339Z" fill="#0B2B37"/>
</svg>
