<svg width="20" height="26" viewBox="0 0 20 26" fill="none" xmlns="http://www.w3.org/2000/svg">
<path fill-rule="evenodd" clip-rule="evenodd" d="M17 0.166687H2.99996C1.7113 0.166687 0.666626 1.21136 0.666626 2.50002V23.5C0.666626 24.7887 1.7113 25.8334 2.99996 25.8334H17C18.2886 25.8334 19.3333 24.7887 19.3333 23.5V2.50002C19.3333 1.21136 18.2886 0.166687 17 0.166687ZM2.99996 7.16669V2.50002H17V7.16669H2.99996ZM2.99996 9.50002V23.5H17V9.50002H2.99996ZM7.66663 21.1667H5.33329V18.8334H7.66663V21.1667ZM8.83329 21.1667H11.1666V18.8334H8.83329V21.1667ZM14.6666 21.1667H12.3333V17.6667V16.5V15.3334H14.6666V16.5V17.6667V21.1667ZM5.33329 17.6667H7.66663V15.3334H5.33329V17.6667ZM11.1666 17.6667H8.83329V15.3334H11.1666V17.6667ZM7.66663 14.1667H5.33329V11.8334H7.66663V14.1667ZM8.83329 14.1667H11.1666V11.8334H8.83329V14.1667ZM14.6666 14.1667H12.3333V11.8334H14.6666V14.1667Z" fill="#0B2B37"/>
</svg>
