<svg width="22" height="28" viewBox="0 0 22 28" fill="none" xmlns="http://www.w3.org/2000/svg">
<path d="M10.9999 27.3334C9.52716 27.3334 8.33325 26.1394 8.33325 24.6667H13.6666C13.6666 26.1394 12.4727 27.3334 10.9999 27.3334ZM21.6666 23.3334H0.333252V20.6667L2.99992 19.3334V12C2.92967 10.1188 3.3545 8.25219 4.23192 6.58669C5.1053 5.04204 6.59818 3.94519 8.33325 3.57335V0.666686H13.1946C11.4618 2.60326 11.1726 5.43522 12.4782 7.68208C13.7838 9.92894 16.3874 11.0799 18.9279 10.5334C18.9746 11.0094 18.9973 11.5027 18.9973 12V19.3334L21.6639 20.6667V23.3334H21.6666ZM17.6666 8.66669C15.5462 8.6634 13.7968 7.00609 13.679 4.88898C13.5611 2.77188 15.1158 0.930668 17.2227 0.692091C19.3296 0.453514 21.2567 1.90048 21.6152 3.99032C21.9737 6.08017 20.6392 8.08669 18.5733 8.56402C18.2759 8.63233 17.9717 8.66677 17.6666 8.66669Z" fill="white"/>
</svg>
