<svg width="21" height="21" viewBox="0 0 21 21" fill="none" xmlns="http://www.w3.org/2000/svg">
<path fill-rule="evenodd" clip-rule="evenodd" d="M9.97456 4.25443C10.5605 4.90396 10.3747 5.63981 9.85664 6.33802C9.7338 6.50356 9.59221 6.66666 9.4212 6.84639C9.33912 6.93266 9.27512 6.99754 9.14124 7.13155L8.37447 7.89874C8.27402 7.99918 8.95984 9.36965 10.2908 10.702C11.6211 12.0335 12.9915 12.7198 13.0924 12.6188L13.8587 11.8522C14.2806 11.4298 14.5041 11.226 14.8112 11.0246C15.4495 10.6058 16.1458 10.492 16.7331 11.0171C18.6504 12.3886 19.7355 13.2302 20.267 13.7825C21.3038 14.8598 21.168 16.5181 20.2729 17.4641C19.9626 17.7921 19.569 18.1859 19.1042 18.634C16.2927 21.4471 10.359 19.7351 5.81151 15.1831C1.26297 10.6301 -0.448062 4.69589 2.35759 1.88873C2.86128 1.37712 3.02736 1.21113 3.51791 0.727769C4.43124 -0.172163 6.16601 -0.313074 7.22057 0.728659C7.77527 1.27662 8.65961 2.41445 9.97456 4.25443ZM15.2723 13.2662L14.5059 14.0331C13.2031 15.3365 10.9846 14.2254 8.8771 12.1159C6.76814 10.0048 5.65833 7.78712 6.96148 6.48408L7.7275 5.71764C7.85008 5.59494 7.90615 5.5381 7.97345 5.46737C8.06515 5.37099 8.1405 5.28635 8.20083 5.21145C7.03546 3.58811 6.24326 2.57376 5.8162 2.15189C5.59564 1.93401 5.10178 1.97413 4.92048 2.15278C4.43692 2.62924 4.27798 2.7881 3.77632 3.29761C1.97201 5.10291 3.35327 9.89344 7.22525 13.7692C11.096 17.6438 15.8858 19.0257 17.7039 17.2069C18.1614 16.7656 18.5343 16.3925 18.8213 16.0892C19.0287 15.87 19.0657 15.4177 18.8272 15.1698C18.4298 14.757 17.4571 13.9985 15.7774 12.7923C15.655 12.8909 15.5045 13.0338 15.2723 13.2662ZM19.0001 9.00005V7.00005H15.4143L20.7072 1.70716L19.293 0.292943L14.0001 5.58584V2.00005H12.0001V9.00005H19.0001Z" fill="white"/>
</svg>
