<svg width="28" height="28" viewBox="0 0 28 28" fill="none" xmlns="http://www.w3.org/2000/svg">
<path fill-rule="evenodd" clip-rule="evenodd" d="M12.4754 9.11736C13.1662 8.18642 13.4139 7.20528 12.6326 6.33924C10.8793 3.88594 9.7002 2.36882 8.96059 1.63821C7.55451 0.249235 5.24149 0.437116 4.02372 1.63703C3.36965 2.28151 3.14822 2.50283 2.47662 3.18497C-1.26425 6.92785 1.01713 14.8402 7.08185 20.9108C13.1452 26.9802 21.0568 29.2628 24.8055 25.512C25.4252 24.9145 25.9499 24.3895 26.3637 23.9521C27.5571 22.6908 27.7383 20.4798 26.3559 19.0434C25.6471 18.307 24.2004 17.1848 21.6439 15.3561C20.8609 14.6559 19.9325 14.8077 19.0814 15.3661C18.672 15.6347 18.374 15.9064 17.8114 16.4696L16.7897 17.4918C16.6552 17.6264 14.828 16.7114 13.0543 14.9359C11.2796 13.1595 10.3652 11.3322 10.4991 11.1983C10.7753 10.9222 11.1161 10.5812 11.5215 10.1754C11.7 9.99672 11.7853 9.91021 11.8948 9.79519C12.1228 9.55555 12.3116 9.33808 12.4754 9.11736ZM18.6743 19.3774L19.6962 18.355C20.0058 18.0451 20.2065 17.8545 20.3697 17.7231C22.6093 19.3314 23.9063 20.3426 24.4361 20.8931C24.7542 21.2236 24.7047 21.8267 24.4282 22.1189C24.0456 22.5234 23.5484 23.0208 22.9383 23.6092C20.5143 26.0343 14.1279 24.1918 8.96684 19.0257C3.8042 13.8579 1.96251 7.47057 4.36826 5.06349C5.03715 4.38415 5.24907 4.17234 5.89381 3.53705C6.13555 3.29886 6.79403 3.24537 7.0881 3.53587C7.65752 4.09836 8.71379 5.45083 10.2676 7.61529C10.1872 7.71515 10.0867 7.82801 9.96444 7.95651C9.87471 8.05082 9.79995 8.1266 9.63651 8.2902C9.23143 8.69568 8.89097 9.03632 8.61515 9.31212C6.87762 11.0495 8.35736 14.0065 11.1693 16.8212C13.9793 19.6339 16.9374 21.1153 18.6743 19.3774Z" fill="#0B2B37"/>
</svg>
