<svg width="22" height="22" viewBox="0 0 22 22" fill="none" xmlns="http://www.w3.org/2000/svg">
<path d="M20.3297 21.6668C8.95417 21.6829 0.320851 12.9462 0.333021 1.67018C0.333021 0.933796 0.929975 0.333496 1.66635 0.333496H5.1855C5.84626 0.333496 6.40758 0.819002 6.50461 1.4726C6.73716 3.03909 7.19324 4.56412 7.85899 6.0011L7.996 6.29684C8.18651 6.70804 8.05738 7.19662 7.68858 7.45999C6.59874 8.23828 6.18224 9.8049 7.03127 11.0273C8.09671 12.5613 9.43974 13.904 10.9734 14.969C12.1957 15.8178 13.7621 15.4013 14.5403 14.3117C14.8039 13.9427 15.2928 13.8135 15.7042 14.0041L15.9986 14.1405C17.4357 14.8062 18.9608 15.2623 20.5274 15.4948C21.1811 15.5918 21.6663 16.1531 21.6663 16.8138V20.3335C21.6663 21.0699 21.0679 21.6668 20.3316 21.6668L20.3297 21.6668Z" fill="#0B2B37"/>
</svg>
