<svg width="22" height="21" viewBox="0 0 22 21" fill="none" xmlns="http://www.w3.org/2000/svg">
<path d="M11.0003 21.0005C6.95386 21.0028 3.3048 18.5664 1.75597 14.8281C0.207138 11.0898 1.06384 6.78655 3.9263 3.92647C6.4536 1.39917 10.1372 0.41215 13.5896 1.3372C17.0419 2.26226 19.7385 4.95885 20.6636 8.4112C21.5886 11.8636 20.6016 15.5472 18.0743 18.0745C16.2018 19.9555 13.6545 21.0091 11.0003 21.0005ZM3.0003 11.1725C3.04762 15.5737 6.64141 19.11 11.0428 19.0865C15.4443 19.0627 18.9998 15.488 18.9998 11.0865C18.9998 6.68497 15.4443 3.11024 11.0428 3.08647C6.64141 3.06293 3.04762 6.59923 3.0003 11.0005V11.1725ZM8.4093 15.0005L7.0003 13.5905L9.5903 11.0005L7.0003 8.41047L8.4103 7.00047L11.0003 9.59047L13.5903 7.00047L15.0003 8.41047L12.4103 11.0005L15.0003 13.5905L13.5913 15.0005L11.0003 12.4105L8.4103 15.0005H8.4093Z" fill="white"/>
</svg>
