<svg width="21" height="21" viewBox="0 0 21 21" fill="none" xmlns="http://www.w3.org/2000/svg">
<path d="M10.5003 21.0005C6.45386 21.0028 2.8048 18.5664 1.25597 14.8281C-0.292862 11.0898 0.563845 6.78655 3.4263 3.92647C5.9536 1.39917 9.63721 0.41215 13.0896 1.3372C16.5419 2.26226 19.2385 4.95885 20.1636 8.4112C21.0886 11.8636 20.1016 15.5472 17.5743 18.0745C15.7018 19.9555 13.1545 21.0091 10.5003 21.0005ZM2.5003 11.1725C2.54762 15.5737 6.14141 19.11 10.5428 19.0865C14.9443 19.0627 18.4998 15.488 18.4998 11.0865C18.4998 6.68497 14.9443 3.11024 10.5428 3.08647C6.14141 3.06293 2.54762 6.59923 2.5003 11.0005V11.1725ZM7.9093 15.0005L6.5003 13.5905L9.0903 11.0005L6.5003 8.41047L7.9103 7.00047L10.5003 9.59047L13.0903 7.00047L14.5003 8.41047L11.9103 11.0005L14.5003 13.5905L13.0913 15.0005L10.5003 12.4105L7.9103 15.0005H7.9093Z" fill="#AC007C"/>
</svg>
