<svg width="26" height="26" viewBox="0 0 26 26" fill="none" xmlns="http://www.w3.org/2000/svg">
<path fill-rule="evenodd" clip-rule="evenodd" d="M18.72 17.18L23.67 22.13C24.11 22.57 24.11 23.23 23.67 23.67C23.45 23.89 23.12 24 22.9 24C22.68 24 22.35 23.89 22.13 23.67L17.18 18.72C15.53 19.93 13.55 20.7 11.35 20.7C6.18 20.7 2 16.52 2 11.35C2 6.18 6.18 2 11.35 2C16.52 2 20.7 6.18 20.7 11.35C20.7 13.55 19.93 15.64 18.72 17.18ZM11.3502 4.19982C7.39017 4.19982 4.20017 7.38982 4.20017 11.3498C4.20017 15.3098 7.39017 18.4998 11.3502 18.4998C13.3302 18.4998 15.0902 17.7298 16.4102 16.4098C17.7302 15.0898 18.5002 13.3298 18.5002 11.3498C18.5002 7.38982 15.3102 4.19982 11.3502 4.19982Z" fill="#0B2B37"/>
<mask id="mask0_1373_17528" style="mask-type:alpha" maskUnits="userSpaceOnUse" x="2" y="2" width="22" height="22">
<path fill-rule="evenodd" clip-rule="evenodd" d="M18.72 17.18L23.67 22.13C24.11 22.57 24.11 23.23 23.67 23.67C23.45 23.89 23.12 24 22.9 24C22.68 24 22.35 23.89 22.13 23.67L17.18 18.72C15.53 19.93 13.55 20.7 11.35 20.7C6.18 20.7 2 16.52 2 11.35C2 6.18 6.18 2 11.35 2C16.52 2 20.7 6.18 20.7 11.35C20.7 13.55 19.93 15.64 18.72 17.18ZM11.3502 4.19982C7.39017 4.19982 4.20017 7.38982 4.20017 11.3498C4.20017 15.3098 7.39017 18.4998 11.3502 18.4998C13.3302 18.4998 15.0902 17.7298 16.4102 16.4098C17.7302 15.0898 18.5002 13.3298 18.5002 11.3498C18.5002 7.38982 15.3102 4.19982 11.3502 4.19982Z" fill="white"/>
</mask>
<g mask="url(#mask0_1373_17528)">
<rect x="-0.200195" y="-0.199829" width="26.4" height="26.4" fill="#0B2B37"/>
</g>
</svg>
