<svg width="28" height="28" viewBox="0 0 28 28" fill="none" xmlns="http://www.w3.org/2000/svg">
<path d="M14 27.3334C6.63955 27.3254 0.674747 21.3605 0.666664 14.0001V13.7334C0.813239 6.40615 6.84611 0.570714 14.1742 0.667946C21.5023 0.765178 27.3783 6.75862 27.3304 14.0872C27.2825 21.4158 21.3288 27.332 14 27.3334ZM14 3.33344C8.10896 3.33344 3.33333 8.10907 3.33333 14.0001C3.33333 19.8911 8.10896 24.6668 14 24.6668C19.891 24.6668 24.6667 19.8911 24.6667 14.0001C24.6601 8.11181 19.8883 3.34005 14 3.33344ZM12.0667 20.6668L10.1813 18.7801L14.8947 14.0668L10.1813 9.35344L12.0667 7.46677L18.6667 14.0668L12.068 20.6668H12.0667Z" fill="#2E3A59"/>
</svg>
