<svg width="52" height="52" viewBox="0 0 52 52" fill="none" xmlns="http://www.w3.org/2000/svg">
<circle cx="26" cy="26" r="25.5" stroke="white"/>
<path d="M34.76 27.1749C34.3166 26.6149 34.4434 26.3657 34.76 25.8651C34.7657 25.8594 38.4263 20.8011 38.8034 19.0857L38.8057 19.0846C38.9931 18.4594 38.8057 18 37.8994 18H34.9006C34.1371 18 33.7851 18.3943 33.5966 18.8354C33.5966 18.8354 32.0697 22.4903 29.9097 24.8594C29.2126 25.544 28.8903 25.7634 28.5097 25.7634C28.3223 25.7634 28.0309 25.544 28.0309 24.9189V19.0846C28.0309 18.3349 27.8171 18 27.1851 18H22.4697C21.9909 18 21.7063 18.3497 21.7063 18.6754C21.7063 19.3863 22.7863 19.5497 22.8983 21.5497V25.8891C22.8983 26.84 22.7257 27.0149 22.3429 27.0149C21.3234 27.0149 18.8491 23.3451 17.3829 19.1451C17.0869 18.3303 16.7977 18.0011 16.0286 18.0011H13.0286C12.1726 18.0011 12 18.3954 12 18.8366C12 19.616 13.0194 23.4914 16.7406 28.6114C19.2206 32.1063 22.7131 34 25.8903 34C27.8 34 28.0331 33.5794 28.0331 32.856C28.0331 29.5166 27.8606 29.2011 28.8171 29.2011C29.2606 29.2011 30.024 29.4206 31.8069 31.1063C33.8446 33.1051 34.1794 34 35.32 34H38.3189C39.1737 34 39.6069 33.5794 39.3577 32.7497C38.7874 31.0046 34.9337 27.4149 34.76 27.1749Z" fill="white"/>
</svg>
