<svg width="52" height="52" viewBox="0 0 52 52" fill="none" xmlns="http://www.w3.org/2000/svg">
<circle cx="26" cy="26" r="25.5" stroke="white"/>
<g clip-path="url(#clip0_0_1)">
<path d="M36.9784 21.4681C36.9268 20.2991 36.7378 19.4955 36.467 18.7991C36.1877 18.0599 35.7579 17.3982 35.1948 16.848C34.6447 16.2893 33.9786 15.8552 33.2479 15.5802C32.5476 15.3094 31.7481 15.1204 30.5792 15.0688C29.4015 15.0129 29.0276 15 26.0407 15C23.0538 15 22.6799 15.0129 21.5066 15.0645C20.3377 15.116 19.534 15.3052 18.8379 15.5758C18.0985 15.8552 17.4367 16.2849 16.8866 16.848C16.3279 17.3982 15.8939 18.0643 15.6188 18.7949C15.348 19.4955 15.1589 20.2948 15.1074 21.4637C15.0515 22.6414 15.0386 23.0152 15.0386 26.0021C15.0386 28.9891 15.0515 29.3629 15.103 30.5362C15.1546 31.7052 15.3438 32.5088 15.6146 33.2052C15.8939 33.9444 16.3279 34.6061 16.8866 35.1563C17.4367 35.715 18.1029 36.1491 18.8335 36.4241C19.534 36.6949 20.3333 36.8839 21.5024 36.9355C22.6756 36.9872 23.0496 36.9999 26.0365 36.9999C29.0234 36.9999 29.3973 36.9872 30.5706 36.9355C31.7395 36.8839 32.5432 36.6949 33.2394 36.4241C34.7179 35.8525 35.8868 34.6835 36.4585 33.2052C36.7291 32.5046 36.9183 31.7052 36.9698 30.5362C37.0214 29.3629 37.0343 28.9891 37.0343 26.0021C37.0343 23.0152 37.0299 22.6414 36.9784 21.4681ZM34.9972 30.4503C34.9499 31.5247 34.7694 32.1049 34.619 32.4917C34.2493 33.4501 33.4887 34.2108 32.5303 34.5805C32.1435 34.7309 31.5591 34.9113 30.4888 34.9585C29.3285 35.0102 28.9804 35.023 26.0451 35.023C23.1097 35.023 22.7573 35.0102 21.6011 34.9585C20.5267 34.9113 19.9465 34.7309 19.5597 34.5805C19.0828 34.4042 18.6487 34.1248 18.2963 33.7595C17.931 33.4028 17.6516 32.973 17.4753 32.4961C17.3249 32.1093 17.1445 31.5247 17.0973 30.4546C17.0456 29.2943 17.0328 28.9461 17.0328 26.0107C17.0328 23.0753 17.0456 22.723 17.0973 21.5669C17.1445 20.4925 17.3249 19.9123 17.4753 19.5255C17.6516 19.0484 17.931 18.6144 18.3006 18.2619C18.6572 17.8966 19.087 17.6172 19.5641 17.4411C19.9509 17.2907 20.5354 17.1102 21.6055 17.0629C22.7659 17.0114 23.1141 16.9984 26.0493 16.9984C28.989 16.9984 29.337 17.0114 30.4932 17.0629C31.5676 17.1102 32.1478 17.2907 32.5346 17.4411C33.0116 17.6172 33.4457 17.8966 33.7981 18.2619C34.1634 18.6186 34.4427 19.0484 34.619 19.5255C34.7694 19.9123 34.9499 20.4967 34.9972 21.5669C35.0488 22.7273 35.0617 23.0753 35.0617 26.0107C35.0617 28.9461 35.0488 29.2899 34.9972 30.4503Z" fill="white"/>
<path d="M26.0407 20.3506C22.9206 20.3506 20.3892 22.8819 20.3892 26.0021C20.3892 29.1223 22.9206 31.6536 26.0407 31.6536C29.1609 31.6536 31.6921 29.1223 31.6921 26.0021C31.6921 22.8819 29.1609 20.3506 26.0407 20.3506ZM26.0407 29.6681C24.0165 29.6681 22.3747 28.0264 22.3747 26.0021C22.3747 23.9778 24.0165 22.3361 26.0407 22.3361C28.0649 22.3361 29.7066 23.9778 29.7066 26.0021C29.7066 28.0264 28.0649 29.6681 26.0407 29.6681Z" fill="white"/>
<path d="M33.2351 20.127C33.2351 20.8556 32.6443 21.4463 31.9156 21.4463C31.187 21.4463 30.5962 20.8556 30.5962 20.127C30.5962 19.3982 31.187 18.8076 31.9156 18.8076C32.6443 18.8076 33.2351 19.3982 33.2351 20.127Z" fill="white"/>
</g>
<defs>
<clipPath id="clip0_0_1">
<rect width="22" height="22" fill="white" transform="translate(15 15)"/>
</clipPath>
</defs>
</svg>
