<svg width="28" height="28" viewBox="0 0 28 28" fill="none" xmlns="http://www.w3.org/2000/svg">
<path d="M14.0003 27.3337C6.63653 27.3337 0.666992 21.3641 0.666992 14.0003C0.666992 6.63653 6.63653 0.666992 14.0003 0.666992C21.3641 0.666992 27.3337 6.63653 27.3337 14.0003C27.3256 21.3608 21.3608 27.3256 14.0003 27.3337ZM13.979 24.667H14.0003C19.8893 24.6611 24.6593 19.884 24.6563 13.995C24.6534 8.10604 19.8786 3.33366 13.9897 3.33366C8.1007 3.33366 3.32594 8.10604 3.32299 13.995C3.32005 19.884 8.09004 24.6611 13.979 24.667ZM11.3337 20.667L6.00033 15.3337L7.88033 13.4537L11.3337 16.8937L20.1203 8.10699L22.0003 10.0003L11.3337 20.667Z" fill="white"/>
</svg>
